<svg xmlns="http://www.w3.org/2000/svg" viewBox="0 0 200 200" fill="none" role="img" aria-label="Boaziši ▄niversitesi">
  <defs>
    <path id="topArc" d="M 28,100 A 72,72 0 0 1 172,100" />
    <path id="botArc" d="M 160,100 A 72,72 0 0 1 40,100" />
  </defs>

  <circle cx="100" cy="100" r="88" stroke="#FFFFFF" stroke-width="3" fill="none"/>
  <circle cx="100" cy="100" r="78" stroke="#FFFFFF" stroke-width="2" fill="none"/>
  <circle cx="100" cy="100" r="52" stroke="#FFFFFF" stroke-width="2.5" fill="none"/>

  <text fill="#FFFFFF" font-family="Arial, Helvetica, sans-serif" font-size="11" font-weight="700" letter-spacing="1.5">
    <textPath href="#topArc" startOffset="50%" text-anchor="middle">BOAZ0ă0 ▄N0VERS0TES0</textPath>
  </text>
  <text fill="#FFFFFF" font-family="Arial, Helvetica, sans-serif" font-size="12" font-weight="700" letter-spacing="2">
    <textPath href="#botArc" startOffset="50%" text-anchor="middle">1863</textPath>
  </text>

  <circle cx="28" cy="100" r="3" fill="#FFFFFF"/>
  <circle cx="172" cy="100" r="3" fill="#FFFFFF"/>

  <g transform="translate(100 100)">
    <polygon points="0,-34 34,0 0,34 -34,0" fill="#FFFFFF"/>
    <polygon points="0,0 34,0 0,34 -34,0" fill="#7DD3FC"/>
    <path d="M -18,6 C -18,-10 -4,-16 0,-8 C 4,-16 18,-10 18,6 C 18,18 6,22 0,12 C -6,22 -18,18 -18,6 Z" fill="#FFFFFF"/>
    <path d="M -14,4 C -10,-6 0,-4 0,2 C 0,-4 10,-6 14,4 C 10,12 2,10 0,4 C -2,10 -10,12 -14,4 Z" fill="#7DD3FC"/>
  </g>
</svg>
